# xmcd
#
# Track frame offsets: 
#        150
#        15612
#        33197
#        51580
#        71505
#        88467
#        103610
#        120432
#        138437
#        152905
#        170050
#
# Disc length: 2341 seconds
#
# Revision: 7
# Processed by: cddbd v1.5.2PL0 Copyright (c) Steve Scherf et al.
# Submitted via: ExactAudioCopy v0.90b4
#
DISCID=9709230b
DTITLE=Emilíana Torrini - Love In The Time Of Science
DYEAR=1999
DGENRE=Indie
TTITLE0=To Be Free
TTITLE1=Wednesday's Child
TTITLE2=Baby Blue
TTITLE3=Dead Things
TTITLE4=Unemployed In Summertime
TTITLE5=Easy
TTITLE6=Fingertips
TTITLE7=Telepathy
TTITLE8=Tuna Fish
TTITLE9=Summerbreeze
TTITLE10=Sea People
EXTD=YEAR: 2000
EXTT0=
EXTT1=
EXTT2=
EXTT3=
EXTT4=
EXTT5=
EXTT6=
EXTT7=
EXTT8=
EXTT9=
EXTT10=
PLAYORDER=
